<svg width="428" height="1042" viewBox="0 0 428 1042" fill="none" xmlns="http://www.w3.org/2000/svg">
<g opacity="0.4">
<g opacity="0.5">
<circle cx="10.5587" cy="273.559" r="8.35627" transform="rotate(-15.7597 10.5587 273.559)" stroke="#B89F1B" stroke-width="2"/>
<circle cx="10.5588" cy="273.559" r="13.9271" transform="rotate(-15.7597 10.5588 273.559)" stroke="#B89F1B" stroke-width="2"/>
<circle cx="10.5587" cy="273.559" r="19.498" transform="rotate(-15.7597 10.5587 273.559)" stroke="#B89F1B" stroke-width="2"/>
<circle cx="10.5588" cy="273.559" r="25.0688" transform="rotate(-15.7597 10.5588 273.559)" stroke="#B89F1B" stroke-width="2"/>
<circle cx="10.5588" cy="273.559" r="30.6397" transform="rotate(-15.7597 10.5588 273.559)" stroke="#B89F1B" stroke-width="2"/>
<circle cx="10.5587" cy="273.559" r="36.2105" transform="rotate(-15.7597 10.5587 273.559)" stroke="#B89F1B" stroke-width="2"/>
<circle cx="10.5587" cy="273.559" r="41.7814" transform="rotate(-15.7597 10.5587 273.559)" stroke="#B89F1B" stroke-width="2"/>
</g>
<g opacity="0.5">
<circle cx="-0.00635349" cy="850.994" r="42.3" transform="rotate(-15.7597 -0.00635349 850.994)" stroke="#B89F1B" stroke-width="2"/>
<circle cx="-0.00627443" cy="850.994" r="70.5" transform="rotate(-15.7597 -0.00627443 850.994)" stroke="#B89F1B" stroke-width="2"/>
<circle cx="-0.00642539" cy="850.994" r="98.7" transform="rotate(-15.7597 -0.00642539 850.994)" stroke="#B89F1B" stroke-width="2"/>
<circle cx="-0.00636045" cy="850.994" r="126.9" transform="rotate(-15.7597 -0.00636045 850.994)" stroke="#B89F1B" stroke-width="2"/>
<circle cx="-0.00639876" cy="850.994" r="155.1" transform="rotate(-15.7597 -0.00639876 850.994)" stroke="#B89F1B" stroke-width="2"/>
<circle cx="-0.00634324" cy="850.994" r="183.3" transform="rotate(-15.7597 -0.00634324 850.994)" stroke="#B89F1B" stroke-width="2"/>
<circle cx="-0.00637212" cy="850.994" r="211.5" transform="rotate(-15.7597 -0.00637212 850.994)" stroke="#B89F1B" stroke-width="2"/>
</g>
<g opacity="0.5">
<circle cx="456.559" cy="51.5588" r="25.0688" transform="rotate(-15.7597 456.559 51.5588)" stroke="#B89F1B" stroke-width="2"/>
<circle cx="456.559" cy="51.5587" r="30.6397" transform="rotate(-15.7597 456.559 51.5587)" stroke="#B89F1B" stroke-width="2"/>
<circle cx="456.559" cy="51.5587" r="36.2105" transform="rotate(-15.7597 456.559 51.5587)" stroke="#B89F1B" stroke-width="2"/>
<circle cx="456.559" cy="51.5587" r="41.7814" transform="rotate(-15.7597 456.559 51.5587)" stroke="#B89F1B" stroke-width="2"/>
</g>
</g>
</svg>
