<svg width="16" height="16" viewBox="0 0 16 16" fill="none" xmlns="http://www.w3.org/2000/svg">
<g clip-path="url(#clip0_111_1078)">
<path d="M8.00004 11.4467C7.56201 11.4474 7.12812 11.3619 6.72317 11.1949C6.31823 11.0279 5.95017 10.7827 5.64004 10.4733L0.193376 5.02666C0.0678397 4.90113 -0.00268555 4.73086 -0.00268555 4.55333C-0.00268555 4.37579 0.0678397 4.20553 0.193376 4.08C0.318911 3.95446 0.489174 3.88393 0.666709 3.88393C0.844243 3.88393 1.01451 3.95446 1.14004 4.08L6.58671 9.52666C6.96171 9.9012 7.47004 10.1116 8.00004 10.1116C8.53004 10.1116 9.03837 9.9012 9.41338 9.52666L14.86 4.08C14.9856 3.95446 15.1558 3.88393 15.3334 3.88393C15.5109 3.88393 15.6812 3.95446 15.8067 4.08C15.9322 4.20553 16.0028 4.37579 16.0028 4.55333C16.0028 4.73086 15.9322 4.90113 15.8067 5.02666L10.36 10.4733C10.0499 10.7827 9.68186 11.0279 9.27691 11.1949C8.87197 11.3619 8.43808 11.4474 8.00004 11.4467V11.4467Z" fill="#B89F1B"/>
</g>
<defs>
<clipPath id="clip0_111_1078">
<rect width="16" height="16" fill="white"/>
</clipPath>
</defs>
</svg>
