<svg width="29" height="28" viewBox="0 0 29 28" fill="none" xmlns="http://www.w3.org/2000/svg">
<rect opacity="0.1" width="29" height="28" rx="8" fill="#B89F1B"/>
<g clip-path="url(#clip0_124_1280)">
<path d="M20.2499 9.98802H18.7069C18.608 9.98804 18.5113 10.0174 18.4291 10.0723C18.3469 10.1273 18.2829 10.2053 18.245 10.2967C18.2072 10.388 18.1973 10.4886 18.2166 10.5855C18.2359 10.6825 18.2835 10.7716 18.3534 10.8415L18.8964 11.3845L17.1034 13.177C17.0081 13.2681 16.8814 13.3189 16.7496 13.3189C16.6178 13.3189 16.4911 13.2681 16.3959 13.177L16.3109 13.0915C16.0252 12.8186 15.6452 12.6662 15.2501 12.6662C14.855 12.6662 14.4751 12.8186 14.1894 13.0915L11.6394 15.6415C11.5454 15.7357 11.4927 15.8634 11.4929 15.9965C11.4931 16.1295 11.5461 16.2571 11.6404 16.351C11.7346 16.445 11.8623 16.4977 11.9953 16.4975C12.1284 16.4973 12.2559 16.4442 12.3499 16.35L14.8999 13.8C14.9951 13.7089 15.1218 13.658 15.2536 13.658C15.3854 13.658 15.5122 13.7089 15.6074 13.8L15.6924 13.8855C15.9782 14.1583 16.3581 14.3104 16.7531 14.3104C17.1482 14.3104 17.5281 14.1583 17.8139 13.8855L19.6069 12.0925L20.1499 12.6355C20.22 12.7043 20.3089 12.7509 20.4054 12.7694C20.5018 12.788 20.6017 12.7777 20.6923 12.7399C20.783 12.7021 20.8605 12.6384 20.9152 12.5568C20.9699 12.4752 20.9994 12.3793 20.9999 12.281V10.738C20.9999 10.5391 20.9208 10.3483 20.7802 10.2077C20.6395 10.067 20.4488 9.98802 20.2499 9.98802Z" fill="#B89F1B"/>
<path d="M20.5 18.988H11.5C11.1022 18.988 10.7206 18.83 10.4393 18.5487C10.158 18.2674 10 17.8858 10 17.488V8.5C10 8.36739 9.94732 8.24021 9.85355 8.14645C9.75979 8.05268 9.63261 8 9.5 8C9.36739 8 9.24021 8.05268 9.14645 8.14645C9.05268 8.24021 9 8.36739 9 8.5V17.488C9.00079 18.1508 9.26444 18.7862 9.73311 19.2549C10.2018 19.7236 10.8372 19.9872 11.5 19.988H20.5C20.6326 19.988 20.7598 19.9353 20.8536 19.8416C20.9473 19.7478 21 19.6206 21 19.488C21 19.3554 20.9473 19.2282 20.8536 19.1344C20.7598 19.0407 20.6326 18.988 20.5 18.988Z" fill="#B89F1B"/>
</g>
<defs>
<clipPath id="clip0_124_1280">
<rect width="12" height="12" fill="white" transform="translate(9 8)"/>
</clipPath>
</defs>
</svg>
