<svg width="70" height="63" viewBox="0 0 70 63" fill="none" xmlns="http://www.w3.org/2000/svg">
<rect opacity="0.1" x="0.5" width="69" height="63" rx="8" fill="#B89F1B"/>
<g clip-path="url(#clip0_110_982)">
<path d="M46.5 41H28.5C27.7044 41 26.9413 40.6839 26.3787 40.1213C25.8161 39.5587 25.5 38.7956 25.5 38V20C25.5 19.7348 25.3946 19.4804 25.2071 19.2929C25.0196 19.1054 24.7652 19 24.5 19C24.2348 19 23.9804 19.1054 23.7929 19.2929C23.6054 19.4804 23.5 19.7348 23.5 20V38C23.5016 39.3256 24.0289 40.5964 24.9662 41.5338C25.9036 42.4711 27.1744 42.9984 28.5 43H46.5C46.7652 43 47.0196 42.8946 47.2071 42.7071C47.3946 42.5196 47.5 42.2652 47.5 42C47.5 41.7348 47.3946 41.4804 47.2071 41.2929C47.0196 41.1054 46.7652 41 46.5 41Z" fill="#B89F1B"/>
<path d="M29.5001 38.9999C29.7653 38.9999 30.0197 38.8946 30.2072 38.707C30.3948 38.5195 30.5001 38.2652 30.5001 37.9999V30.9999C30.5001 30.7347 30.3948 30.4804 30.2072 30.2928C30.0197 30.1053 29.7653 29.9999 29.5001 29.9999C29.2349 29.9999 28.9806 30.1053 28.793 30.2928C28.6055 30.4804 28.5001 30.7347 28.5001 30.9999V37.9999C28.5001 38.2652 28.6055 38.5195 28.793 38.707C28.9806 38.8946 29.2349 38.9999 29.5001 38.9999Z" fill="#B89F1B"/>
<path d="M33.4999 29V38C33.4999 38.2652 33.6052 38.5196 33.7928 38.7071C33.9803 38.8946 34.2347 39 34.4999 39C34.7651 39 35.0195 38.8946 35.207 38.7071C35.3945 38.5196 35.4999 38.2652 35.4999 38V29C35.4999 28.7348 35.3945 28.4804 35.207 28.2929C35.0195 28.1054 34.7651 28 34.4999 28C34.2347 28 33.9803 28.1054 33.7928 28.2929C33.6052 28.4804 33.4999 28.7348 33.4999 29Z" fill="#B89F1B"/>
<path d="M38.5 32V38C38.5 38.2652 38.6054 38.5196 38.7929 38.7071C38.9804 38.8946 39.2348 39 39.5 39C39.7652 39 40.0196 38.8946 40.2071 38.7071C40.3947 38.5196 40.5 38.2652 40.5 38V32C40.5 31.7348 40.3947 31.4804 40.2071 31.2929C40.0196 31.1054 39.7652 31 39.5 31C39.2348 31 38.9804 31.1054 38.7929 31.2929C38.6054 31.4804 38.5 31.7348 38.5 32Z" fill="#B89F1B"/>
<path d="M43.5001 27.9999V37.9999C43.5001 38.2651 43.6055 38.5195 43.793 38.707C43.9806 38.8946 44.2349 38.9999 44.5001 38.9999C44.7653 38.9999 45.0197 38.8946 45.2072 38.707C45.3948 38.5195 45.5001 38.2651 45.5001 37.9999V27.9999C45.5001 27.7347 45.3948 27.4803 45.2072 27.2928C45.0197 27.1053 44.7653 26.9999 44.5001 26.9999C44.2349 26.9999 43.9806 27.1053 43.793 27.2928C43.6055 27.4803 43.5001 27.7347 43.5001 27.9999Z" fill="#B89F1B"/>
<path d="M29.4998 27.9999C29.765 27.9999 30.0193 27.8945 30.2068 27.7069L33.7928 24.1209C33.9834 23.9394 34.2365 23.8381 34.4998 23.8381C34.763 23.8381 35.0162 23.9394 35.2068 24.1209L37.3788 26.2929C37.9414 26.8554 38.7043 27.1713 39.4998 27.1713C40.2953 27.1713 41.0582 26.8554 41.6208 26.2929L47.2068 20.7069C47.3889 20.5183 47.4897 20.2657 47.4875 20.0035C47.4852 19.7414 47.38 19.4905 47.1946 19.3051C47.0092 19.1197 46.7584 19.0146 46.4962 19.0123C46.234 19.01 45.9814 19.1108 45.7928 19.2929L40.2068 24.8779C40.0193 25.0654 39.765 25.1707 39.4998 25.1707C39.2346 25.1707 38.9803 25.0654 38.7928 24.8779L36.6208 22.7069C36.0582 22.1445 35.2953 21.8286 34.4998 21.8286C33.7043 21.8286 32.9414 22.1445 32.3788 22.7069L28.7928 26.2929C28.653 26.4328 28.5578 26.611 28.5192 26.8049C28.4806 26.9989 28.5004 27.1999 28.5761 27.3826C28.6518 27.5653 28.7799 27.7215 28.9443 27.8314C29.1087 27.9412 29.302 27.9999 29.4998 27.9999V27.9999Z" fill="#B89F1B"/>
</g>
<defs>
<clipPath id="clip0_110_982">
<rect width="24" height="24" fill="white" transform="translate(23.5 19)"/>
</clipPath>
</defs>
</svg>
