<svg width="428" height="653" viewBox="0 0 428 653" fill="none" xmlns="http://www.w3.org/2000/svg">
<g opacity="0.05">
<path d="M42.9977 127.489L44.4335 137.264C54.8437 208.14 137.788 241.674 195.337 198.273L203.594 192.046C257.685 151.252 335.626 183.097 344.919 249.787L348.153 272.999C354.88 321.271 407.196 348.557 451.117 326.701V326.701" stroke="white" stroke-width="0.653416"/>
<path d="M40.4677 133.55L41.9034 143.325C52.3136 214.201 135.258 247.735 192.806 204.334L201.064 198.107C255.155 157.313 333.096 189.158 342.389 255.848L345.623 279.06C352.35 327.332 404.666 354.618 448.587 332.762V332.762" stroke="white" stroke-width="0.653416"/>
<path d="M37.9382 139.611L39.3739 149.386C49.7841 220.262 132.729 253.796 190.277 210.395L198.534 204.168C252.625 163.374 330.567 195.219 339.86 261.909L343.094 285.121C349.82 333.393 402.137 360.679 446.058 338.824V338.824" stroke="white" stroke-width="0.653416"/>
<path d="M35.4079 145.672L36.8436 155.447C47.2538 226.323 130.198 259.857 187.747 216.456L196.004 210.229C250.095 169.435 328.037 201.28 337.329 267.97L340.564 291.182C347.29 339.454 399.606 366.74 443.527 344.885V344.885" stroke="white" stroke-width="0.653416"/>
<path d="M32.8784 151.733L34.3141 161.508C44.7243 232.384 127.669 265.918 185.217 222.517L193.474 216.29C247.565 175.496 325.507 207.341 334.8 274.031L338.034 297.243C344.76 345.515 397.077 372.801 440.998 350.945V350.945" stroke="white" stroke-width="0.653416"/>
<path d="M30.3476 157.794L31.7833 167.569C42.1935 238.445 125.138 271.979 182.686 228.578L190.944 222.351C245.035 181.557 322.976 213.402 332.269 280.092L335.503 303.304C342.23 351.576 394.546 378.862 438.467 357.007V357.007" stroke="white" stroke-width="0.653416"/>
<path d="M27.8183 163.855L29.254 173.63C39.6642 244.506 122.609 278.04 180.157 234.639L188.414 228.412C242.505 187.618 320.447 219.463 329.74 286.153L332.974 309.365C339.7 357.637 392.017 384.923 435.938 363.068V363.068" stroke="white" stroke-width="0.653416"/>
<path d="M25.2884 169.916L26.7241 179.691C37.1343 250.567 120.079 284.101 177.627 240.7L185.884 234.473C239.975 193.679 317.917 225.524 327.21 292.214L330.444 315.426C337.17 363.698 389.487 390.984 433.408 369.129V369.129" stroke="white" stroke-width="0.653416"/>
<path d="M22.7582 175.977L24.194 185.752C34.6042 256.628 117.549 290.162 175.097 246.761L183.354 240.534C237.445 199.74 315.387 231.585 324.68 298.275L327.914 321.487C334.64 369.759 386.957 397.046 430.878 375.19V375.19" stroke="white" stroke-width="0.653416"/>
<path d="M20.2287 182.038L21.6644 191.813C32.0746 262.689 115.019 296.223 172.567 252.822L180.825 246.595C234.916 205.801 312.857 237.646 322.15 304.336L325.384 327.548C332.111 375.82 384.427 403.106 428.348 381.251V381.251" stroke="white" stroke-width="0.653416"/>
<path d="M17.6983 188.099L19.134 197.874C29.5442 268.75 112.489 302.284 170.037 258.883L178.294 252.656C232.385 211.862 310.327 243.707 319.62 310.397L322.854 333.609C329.58 381.881 381.897 409.167 425.818 387.312V387.312" stroke="white" stroke-width="0.653416"/>
<path d="M15.1686 194.16L16.6044 203.935C27.0146 274.811 109.959 308.345 167.507 264.944L175.765 258.717C229.856 217.923 307.797 249.768 317.09 316.458L320.324 339.67C327.051 387.942 379.367 415.228 423.288 393.373V393.373" stroke="white" stroke-width="0.653416"/>
<path d="M12.639 200.221L14.0747 209.996C24.4849 280.872 107.429 314.406 164.978 271.005L173.235 264.778C227.326 223.984 305.268 255.829 314.56 322.519L317.795 345.731C324.521 394.003 376.838 421.289 420.758 399.433V399.433" stroke="white" stroke-width="0.653416"/>
<path d="M10.1089 206.282L11.5447 216.057C21.9549 286.933 104.899 320.467 162.448 277.066L170.705 270.839C224.796 230.045 302.738 261.89 312.03 328.58L315.265 351.792C321.991 400.064 374.308 427.35 418.228 405.495V405.495" stroke="white" stroke-width="0.653416"/>
<path d="M7.57892 212.343L9.01464 222.118C19.4248 292.994 102.369 326.528 159.918 283.127L168.175 276.9C222.266 236.106 300.208 267.951 309.5 334.641L312.735 357.853C319.461 406.125 371.777 433.412 415.698 411.556V411.556" stroke="white" stroke-width="0.653416"/>
<path d="M5.10895 218.261L6.54467 228.036C16.9549 298.912 99.8993 332.446 157.448 289.045L165.705 282.817C219.796 242.024 297.738 273.868 307.03 340.559L310.265 363.771C316.991 412.042 369.308 439.329 413.228 417.473V417.473" stroke="white" stroke-width="0.653416"/>
<path d="M2.63886 224.179L4.07458 233.953C14.4848 304.83 97.4292 338.363 154.978 294.962L163.235 288.735C217.326 247.941 295.268 279.786 304.56 346.476L307.795 369.688C314.521 417.96 366.837 445.247 410.758 423.391V423.391" stroke="white" stroke-width="0.653416"/>
<path d="M0.168764 230.096L1.60448 239.871C12.0147 310.747 94.9591 344.281 152.508 300.88L160.765 294.653C214.856 253.859 292.797 285.704 302.09 352.394L305.325 375.606C312.051 423.878 364.367 451.164 408.288 429.308V429.308" stroke="white" stroke-width="0.653416"/>
<path d="M-2.30121 236.014L-0.865486 245.788C9.54472 316.665 92.4892 350.198 150.038 306.797L158.295 300.57C212.386 259.777 290.328 291.621 299.62 358.311L302.855 381.523C309.581 429.795 361.897 457.082 405.818 435.226V435.226" stroke="white" stroke-width="0.653416"/>
<path d="M-4.7713 241.931L-3.33558 251.706C7.07462 322.582 90.0191 356.116 147.567 312.715L155.825 306.488C209.916 265.694 287.857 297.539 297.15 364.229L300.384 387.441C307.111 435.713 359.427 462.999 403.348 441.143V441.143" stroke="white" stroke-width="0.653416"/>
<path d="M-7.24127 247.849L-5.80555 257.624C4.60465 328.5 87.5491 362.033 145.098 318.632L153.355 312.405C207.446 271.612 285.387 303.456 294.68 370.146L297.914 393.358C304.641 441.63 356.957 468.917 400.878 447.061V447.061" stroke="white" stroke-width="0.653416"/>
<path d="M-9.71124 253.766L-8.27552 263.541C2.13468 334.417 85.0791 367.951 142.628 324.55L150.885 318.323C204.976 277.529 282.917 309.374 292.21 376.064L295.444 399.276C302.171 447.548 354.487 474.834 398.408 452.978V452.978" stroke="white" stroke-width="0.653416"/>
<path d="M-12.1813 259.684L-10.7456 269.459C-0.33541 340.335 82.609 373.869 140.157 330.468L148.415 324.24C202.506 283.447 280.447 315.291 289.74 381.981L292.974 405.193C299.701 453.465 352.017 480.752 395.938 458.896V458.896" stroke="white" stroke-width="0.653416"/>
<path d="M-14.6514 265.601L-13.2157 275.376C-2.8055 346.252 80.139 379.786 137.687 336.385L145.945 330.158C200.035 289.364 277.977 321.209 287.27 387.899L290.504 411.111C297.231 459.383 349.547 486.669 393.468 464.814V464.814" stroke="white" stroke-width="0.653416"/>
<path d="M-17.1214 271.519L-15.6857 281.294C-5.27547 352.17 77.669 385.704 135.217 342.303L143.475 336.075C197.566 295.282 275.507 327.126 284.8 393.817L288.034 417.029C294.761 465.3 347.077 492.587 390.998 470.731V470.731" stroke="white" stroke-width="0.653416"/>
<path d="M-19.5915 277.436L-18.1558 287.211C-7.74557 358.087 75.1989 391.621 132.747 348.22L141.005 341.993C195.095 301.199 273.037 333.044 282.33 399.734L285.564 422.946C292.29 471.218 344.607 498.505 388.528 476.649V476.649" stroke="white" stroke-width="0.653416"/>
<path d="M-22.0616 283.354L-20.6259 293.129C-10.2157 364.005 72.7288 397.539 130.277 354.138L138.534 347.91C192.625 307.117 270.567 338.962 279.86 405.652L283.094 428.864C289.82 477.135 342.137 504.422 386.058 482.566V482.566" stroke="white" stroke-width="0.653416"/>
<path d="M-24.5316 289.272L-23.0958 299.046C-12.6856 369.923 70.2588 403.456 127.807 360.055L136.064 353.828C190.155 313.034 268.097 344.879 277.39 411.569L280.624 434.781C287.35 483.053 339.667 510.34 383.588 488.484V488.484" stroke="white" stroke-width="0.653416"/>
<path d="M-27.0016 295.189L-25.5659 304.964C-15.1557 375.84 67.7887 409.374 125.337 365.973L133.594 359.746C187.685 318.952 265.627 350.797 274.92 417.487L278.154 440.699C284.88 488.971 337.197 516.257 381.118 494.401V494.401" stroke="white" stroke-width="0.653416"/>
</g>
</svg>
