<svg width="202" height="230" viewBox="0 0 202 230" fill="none" xmlns="http://www.w3.org/2000/svg">
<path fill-rule="evenodd" clip-rule="evenodd" d="M89.0032 0.00617027L89 0L85.0167 10.4818L71.5 46L71.5109 46.0207L47.4505 109.333L0 115.818L0.738521 121.222L45.2314 115.172L27.0268 163.076C18.2069 159.036 9.8112 155.864 3 154.446C10.3993 160.504 17.1732 166.506 23.4493 172.49L6.92407 215.974L11.4601 217.806L28.5294 177.436C45.7319 194.542 59.1439 211.592 71.75 229.5C85.4349 202.084 102.684 172.399 123.103 144.431L161.67 217.995L201.102 213.964L148.195 112.983C154.253 106.067 160.524 99.3811 167 93C166.977 93.012 166.954 93.0241 166.932 93.0361L166.967 93L139.68 96.7292L89.0035 0.00531661L89.0032 0.00617027ZM154.617 100.3L142.419 101.958L145.064 107.007C148.176 104.668 151.36 102.426 154.617 100.3ZM116.801 132.409L103.603 107.236L55.4431 113.784L33.3339 166.073C47.2205 172.897 61.4678 181.306 71.75 188C72.7945 186.6 73.8609 185.167 74.9492 183.705C86.387 168.333 100.255 149.694 116.801 132.409ZM100.875 102.032L57.9306 107.901L78.4769 59.308L100.875 102.032Z" fill="black"/>
</svg>
